PathFileType	4	(X/Y/Z)	C:\Users\Vitor Bertoli\OneDrive\Documents\Yolotestes\IMG_0214_Sports2D\IMG_0214_Sports2D_m_person00.trc
DataRate	CameraRate	NumFrames	NumMarkers	Units	OrigDataRate	OrigDataStartFrame	OrigNumFrames
120	120	10	22	m	120	0	633
Frame#	Time	Hip			RHip			RKnee			RAnkle			RBigToe			RSmallToe			RHeel			LHip			LKnee			LAnkle			LBigToe			LSmallToe			LHeel			Neck			Head			Nose			RShoulder			RElbow			RWrist			LShoulder			LElbow			LWrist		
		X1	Y1	Z1	X2	Y2	Z2	X3	Y3	Z3	X4	Y4	Z4	X5	Y5	Z5	X6	Y6	Z6	X7	Y7	Z7	X8	Y8	Z8	X9	Y9	Z9	X10	Y10	Z10	X11	Y11	Z11	X12	Y12	Z12	X13	Y13	Z13	X14	Y14	Z14	X15	Y15	Z15	X16	Y16	Z16	X17	Y17	Z17	X18	Y18	Z18	X19	Y19	Z19	X20	Y20	Z20	X21	Y21	Z21	X22	Y22	Z22
0	0.0	1.8700754489781723	0.8867241149507007	0.0	1.7869125692873593	0.9011144313407299	0.0	1.8263325109093116	0.4726722250956246	0.0	1.4495624046634166	0.16989922683470784	0.0	1.5243401570638635	-0.0058116902643998245	0.0	1.470336619280444	0.0010269461764194215	0.0	1.3634641555904592	0.15114647925545424	0.0	1.969660729461626	0.868399294367463	0.0	2.1591215014002194	0.5510964363569412	0.0	2.04579067672712	0.12286230635175276	0.0	2.226231167786525	0.01597814571703456	0.0	2.2091280931472856	0.03604565090710883	0.0	1.9937436319260822	0.05562296065379608	0.0	2.32073000131719	1.2033923539983074	0.0	2.578868251581826	1.296443212581823	0.0	2.523515850690693	1.1836881367778969	0.0	2.1682708137556435	1.1915234918452289	0.0	1.9931823484397502	0.9146170497656205	0.0	2.110843002833179	0.6656118145868063	0.0	2.2876469470896	1.1945031740654806	0.0	2.1324319357148025	0.9513868867658067	0.0	2.138966942145377	0.6828550347081798	0.0
1	0.008333333333333333	1.8701946448945312	0.886566410688	0.0	1.7870326786434991	0.9006245913416986	0.0	1.825496441817057	0.47060104885044174	0.0	1.4490735129395698	0.16967938332496924	0.0	1.524386793805448	-0.005734559733568058	0.0	1.4707144073159977	0.0011617800866441372	0.0	1.363375714530358	0.15138438110603405	0.0	1.9686516265396308	0.8677966558678237	0.0	2.1595380582387738	0.5502506153383941	0.0	2.0456167852291975	0.12250066063696574	0.0	2.2257901627863124	0.01818961996552758	0.0	2.208789421362697	0.03676093914027454	0.0	1.9932288123382444	0.05609109819589403	0.0	2.3213641910652694	1.2031924920492862	0.0	2.5820306580523122	1.2975304564462753	0.0	2.5221121489103573	1.18534560869287	0.0	2.171291268720858	1.1910522304131643	0.0	1.9926262943469917	0.9154576687080692	0.0	2.111269957524341	0.6655036497674305	0.0	2.2865076400736837	1.1911617090222149	0.0	2.1321912838185826	0.9499368879475818	0.0	2.138842924072625	0.6821803692484976	0.0
2	0.016666666666666666	1.8702934952257353	0.8863284783942729	0.0	1.787117077277786	0.9000885148309827	0.0	1.8247387176330088	0.46865724394526503	0.0	1.4486283298665916	0.16944840215363485	0.0	1.524398597017077	-0.005672426681197469	0.0	1.4710485679970842	0.0012872240922993457	0.0	1.3632908157585668	0.15160304242564557	0.0	1.9676770113198743	0.8671447632315022	0.0	2.159958540131907	0.5494187318452751	0.0	2.045432434625342	0.1221341949315439	0.0	2.225355131066067	0.020207125073646467	0.0	2.20844619061729	0.03739468247921197	0.0	1.9927223628649777	0.05646672305847056	0.0	2.32190216495599	1.2029953894507501	0.0	2.5848966988131266	1.2985275615757628	0.0	2.5207740866533253	1.1868776466483593	0.0	2.174060064842152	1.1906031623003535	0.0	1.9921247317752362	0.9162007419636198	0.0	2.1116530233766158	0.6653906779301909	0.0	2.285430964932926	1.188026581467798	0.0	2.131960234524692	0.9485351940555857	0.0	2.138741451037244	0.6815286247282846	0.0
3	0.025	1.8703782395625292	0.8859621832696827	0.0	1.7871567368096606	0.8994820238820139	0.0	1.8240883385675895	0.4669302758202536	0.0	1.4482382956702038	0.16919184441856408	0.0	1.5243803273585141	-0.005644552365341148	0.0	1.4713194169720671	0.0013707340370262904	0.0	1.363219573602983	0.1517747086086629	0.0	1.9667709334927923	0.8664049165230262	0.0	2.1603820014889266	0.5486135804351201	0.0	2.0452351614773425	0.12176744536668416	0.0	2.224945589873075	0.021911185638914477	0.0	2.208096081539552	0.03789140999866258	0.0	1.992231586993993	0.05673150090088168	0.0	2.3222976229601198	1.202787140742153	0.0	2.587294147951336	1.2993572342332766	0.0	2.5195643170160005	1.188188972310398	0.0	2.1764242288509696	1.190203558298615	0.0	1.991728163191419	0.916787316341201	0.0	2.1119814854868943	0.6652717107120709	0.0	2.2844516861442647	1.1852405997891993	0.0	2.131719709500846	0.9472368549920867	0.0	2.138645699440124	0.6809129466082152	0.0
4	0.03333333333333333	1.8704306871589835	0.8854426715737087	0.0	1.787146015216686	0.8987988487869036	0.0	1.823550125835737	0.46546367542271594	0.0	1.4478966590440168	0.16891235975821087	0.0	1.524348960265497	-0.00564253931472017	0.0	1.4715366079601813	0.0013956370196244869	0.0	1.3631540590848106	0.15190154951670476	0.0	1.965912814738621	0.8655590446837904	0.0	2.1607886970689236	0.5478409393536869	0.0	2.045021818596024	0.12140629340746505	0.0	2.2245624566136986	0.02325886191446956	0.0	2.2077190515230645	0.038229617597947	0.0	1.991764945059306	0.05689268897962955	0.0	2.322537154493627	1.2025644957335726	0.0	2.5891735441930743	1.299999778435758	0.0	2.5185181591573937	1.1892398759011982	0.0	2.178340444383298	1.1898606245466181	0.0	1.9914533027053438	0.9171976890488057	0.0	2.112252492085902	0.6651359225004789	0.0	2.283575307887145	1.18284667293163	0.0	2.131476663257722	0.9460185483693148	0.0	2.1385620984866276	0.6803079118985542	0.0
5	0.041666666666666664	1.8704093214691533	0.8847632349651802	0.0	1.7870719149267995	0.8980415419424214	0.0	1.8231215760997959	0.46426577468924685	0.0	1.447590154017975	0.16862650736991033	0.0	1.5243209746427027	-0.0056468112272883165	0.0	1.4717187675421808	0.0013624602501992585	0.0	1.3630688312782644	0.15200487613692903	0.0	1.9650604908078608	0.8646145192798199	0.0	2.161151040705826	0.5471058115012161	0.0	2.0447875924294343	0.1210521926697572	0.0	2.224194564317582	0.024253402999284735	0.0	2.2072955293285292	0.038410641525492444	0.0	1.9913296885387706	0.05696362467034657	0.0	2.322620462161062	1.2023280425172198	0.0	2.5905501096896932	1.3004643498682258	0.0	2.5176335276150903	1.1900151076770782	0.0	2.1798076007356237	1.1895516808021194	0.0	1.9912834579616014	0.9174315325847126	0.0	2.1124666329194026	0.6649620324001376	0.0	2.2827965726932584	1.180825166945723	0.0	2.1312553388933364	0.9448174523489784	0.0	2.138510113073573	0.6796823007942636	0.0
6	0.05	1.8702765039618168	0.8839398890306528	0.0	1.786924854163662	0.8972229418925947	0.0	1.8227963304337456	0.46331437700060385	0.0	1.447311199058875	0.16835743991724297	0.0	1.5243052922917006	-0.005646737286288336	0.0	1.471882524880838	0.001274309442023006	0.0	1.3629405478438856	0.15210459225221834	0.0	1.9641941332633615	0.8636031179321806	0.0	2.161451237912922	0.5464143173628686	0.0	2.044525492786225	0.12070155225701334	0.0	2.2238342045076886	0.024909123874975098	0.0	2.206819753784579	0.03843991639788468	0.0	1.9909296247723183	0.056954102320968286	0.0	2.322549836433864	1.202074151555505	0.0	2.59145086723529	1.300751645657137	0.0	2.516883914581934	1.1905015743760998	0.0	2.180819249659878	1.18924229862588	0.0	1.991189729191822	0.9174922543791968	0.0	2.1126329243257636	0.6647258254633502	0.0	2.282120387079973	1.1791438251202158	0.0	2.1310721381205724	0.9435993292261311	0.0	2.138499457314174	0.6790326164084811	0.0
7	0.058333333333333334	1.8700231889615986	0.8830117502872199	0.0	1.7867176700197756	0.8963704297801756	0.0	1.8225531795408643	0.46255165405707566	0.0	1.447061426427914	0.16812466794978395	0.0	1.524305075550762	-0.00564463976109347	0.0	1.4720471146906249	0.0011271587608403738	0.0	1.3627612089271401	0.15221242083520314	0.0	1.9633164518051667	0.8625680524293501	0.0	2.161688736167331	0.5457681201040189	0.0	2.0442276277987674	0.12034735443824619	0.0	2.2234819510413537	0.025253977156123018	0.0	2.2062957536654295	0.03833056997503434	0.0	1.990563482912132	0.056875372504381155	0.0	2.3223381119650703	1.2017974835224832	0.0	2.5919323119583555	1.3008537268956475	0.0	2.516240961786991	1.1907027572473898	0.0	2.1813899612085286	1.188907658072449	0.0	1.9911452487914443	0.9173928469403433	0.0	2.112764890426917	0.6644100495684193	0.0	2.281560579732393	1.1777601615644853	0.0	2.1309238042542256	0.9423660928523423	0.0	2.1385264681422735	0.6783771876108113	0.0
8	0.06666666666666667	1.8696637605410318	0.882031667357071	0.0	1.7864829959251887	0.8955233239104412	0.0	1.8223570836117708	0.4618959491630264	0.0	1.4468511608396069	0.167937616759854	0.0	1.524322464790142	-0.005650211456972649	0.0	1.472236478174521	0.0009201812646514329	0.0	1.3625367337840883	0.1523364671035684	0.0	1.962430788329344	0.8615554957390893	0.0	2.1618729468420685	0.5451595488879297	0.0	2.0438931883510305	0.1199808552343269	0.0	2.223139553443435	0.0253400795467921	0.0	2.205733773063629	0.038113950878595856	0.0	1.9902269148249319	0.05674253153703893	0.0	2.3220161057008615	1.2014993384381758	0.0	2.5921006371378894	1.3007814125940673	0.0	2.515687841623349	1.1906570172634212	0.0	2.181583132699132	1.1885365018035	0.0	1.9911238455193392	0.917163584286588	0.0	2.1128684067052212	0.664010194006653	0.0	2.2811273427396075	1.1766019893369775	0.0	2.1308050263207976	0.9411107995829779	0.0	2.1385958428481358	0.6777288793356766	0.0
9	0.075	1.8692222690024816	0.881053409839855	0.0	1.7862555266508493	0.8947235332351718	0.0	1.8221755868498928	0.4612752580380818	0.0	1.4466926080368323	0.16779609497152387	0.0	1.5243606779090966	-0.005679732433490453	0.0	1.4724646976765057	0.0006667800999648017	0.0	1.3622787934537055	0.1524804957828266	0.0	1.9615471089385281	0.8606155281384825	0.0	2.1620150819113353	0.5445772555222504	0.0	2.043536833905341	0.11959488905558625	0.0	2.222805568973446	0.025219083025686893	0.0	2.2051572688637324	0.03782657298886372	0.0	1.9899164725125074	0.05657138589593432	0.0	2.321624177989575	1.2011842273451117	0.0	2.592059611165714	1.3005724939727146	0.0	2.515223957396796	1.1904221600507037	0.0	2.181474557905605	1.188123847022428	0.0	1.9911030763571542	0.916836683581067	0.0	2.112949196297836	0.6635297446571176	0.0	2.2808281712737064	1.1755905406909757	0.0	2.1307232211453466	0.9398175561970951	0.0	2.1387271442779445	0.6770895843036703	0.0
